HIERARCHY
ROOT Hips
{
	OFFSET -0.001795 -0.223333 0.028219
	CHANNELS 6 Xposition Yposition Zposition Zrotation Yrotation Xrotation 
	JOINT LeftUpLeg
	{
		OFFSET 0.069520 -0.091406 -0.006815
		CHANNELS 3 Zrotation Yrotation Xrotation
		JOINT LeftLeg
		{
			OFFSET 0.034277 -0.375199 -0.004496
			CHANNELS 3 Zrotation Yrotation Xrotation
			JOINT LeftFoot
			{
				OFFSET -0.013596 -0.397961 -0.043693
				CHANNELS 3 Zrotation Yrotation Xrotation
				JOINT LeftToe
				{
					OFFSET 0.026358 -0.055791 0.119288
					CHANNELS 3 Zrotation Yrotation Xrotation
					End Site
					{
						OFFSET 0.000000 0.000000 0.000000
					}
				}
			}
		}
	}
	JOINT RightUpLeg
	{
		OFFSET -0.067670 -0.090522 -0.004320
		CHANNELS 3 Zrotation Yrotation Xrotation
		JOINT RightLeg
		{
			OFFSET -0.038290 -0.382569 -0.008850
			CHANNELS 3 Zrotation Yrotation Xrotation
			JOINT RightFoot
			{
				OFFSET 0.015774 -0.398415 -0.042312
				CHANNELS 3 Zrotation Yrotation Xrotation
				JOINT RightToe
				{
					OFFSET -0.025372 -0.048144 0.123348
					CHANNELS 3 Zrotation Yrotation Xrotation
					End Site
					{
						OFFSET 0.000000 0.000000 0.000000
					}
				}
			}
		}
	}
	JOINT Spine
	{
		OFFSET -0.002533 0.108963 -0.026696
		CHANNELS 3 Zrotation Yrotation Xrotation
		JOINT Spine1
		{
			OFFSET 0.005487 0.135180 0.001092
			CHANNELS 3 Zrotation Yrotation Xrotation
			JOINT Spine2
			{
				OFFSET 0.001457 0.052922 0.025425
				CHANNELS 3 Zrotation Yrotation Xrotation
				JOINT Neck
				{
					OFFSET -0.002778 0.213870 -0.042857
					CHANNELS 3 Zrotation Yrotation Xrotation
					JOINT Head
					{
						OFFSET 0.005152 0.064970 0.051349
						CHANNELS 3 Zrotation Yrotation Xrotation
						End Site
						{
							OFFSET 0.000000 0.000000 0.000000
						}
					}
				}
				JOINT LeftShoulder
				{
					OFFSET 0.078845 0.121749 -0.034090
					CHANNELS 3 Zrotation Yrotation Xrotation
					JOINT LeftArm
					{
						OFFSET 0.090977 0.030469 -0.008868
						CHANNELS 3 Zrotation Yrotation Xrotation
						JOINT LeftForeArm
						{
							OFFSET 0.259612 -0.012772 -0.027456
							CHANNELS 3 Zrotation Yrotation Xrotation
							JOINT LeftHand
							{
								OFFSET 0.249234 0.008986 -0.001171
								CHANNELS 3 Zrotation Yrotation Xrotation
								End Site
								{
									OFFSET 0.000000 0.000000 0.000000
								}
							}
						}
					}
				}
				JOINT RightShoulder
				{
					OFFSET -0.081759 0.118833 -0.038615
					CHANNELS 3 Zrotation Yrotation Xrotation
					JOINT RightArm
					{
						OFFSET -0.096012 0.032551 -0.009143
						CHANNELS 3 Zrotation Yrotation Xrotation
						JOINT RightForeArm
						{
							OFFSET -0.253742 -0.013329 -0.021401
							CHANNELS 3 Zrotation Yrotation Xrotation
							JOINT RightHand
							{
								OFFSET -0.255298 0.007772 -0.005559
								CHANNELS 3 Zrotation Yrotation Xrotation
								End Site
								{
									OFFSET 0.000000 0.000000 0.000000
								}
							}
						}
					}
				}
			}
		}
	}
}
MOTION
Frames: 16
Frame Time: 0.050000
-0.630376 0.985688 -0.237737 178.327534 37.427572 174.349984 -4.692494 -2.389984 5.153650 0.183478 -2.691525 0.925070 11.754976 -2.995887 24.459255 0.000000 0.000000 0.000000 -7.052286 -10.365342 -4.133901 -28.212461 -22.539085 41.157405 31.146815 10.660452 17.571164 0.000000 0.000000 0.000000 -0.382271 -3.315601 17.143131 -9.480822 -3.241190 -29.998549 5.859146 18.770936 38.550113 11.196660 3.702504 -35.823588 0.000000 0.000000 0.000000 5.651578 -12.182519 -60.645295 -39.412459 46.210837 -24.964363 -39.021857 -10.209526 -4.163988 0.000000 0.000000 0.000000 20.199987 -27.765855 33.199910 48.294285 52.301848 24.653948 -12.152702 32.807309 -2.030005 0.000000 0.000000 0.000000 
-0.622400 0.986952 -0.254408 179.534009 34.376313 174.421386 -3.669012 -4.216979 8.275683 -0.679783 -3.104549 -0.469417 15.175440 -4.293761 22.676773 0.000000 0.000000 0.000000 -4.956204 -9.860460 -6.663964 -29.159905 -23.133556 41.435053 35.877076 10.502263 16.020989 0.000000 0.000000 0.000000 -0.780339 -4.141039 18.775410 -9.326256 -3.699920 -30.910601 6.663789 16.905737 39.343225 10.279441 4.292478 -37.835211 0.000000 0.000000 0.000000 5.658491 -12.970439 -65.662490 -35.771773 48.297296 -22.080462 -42.044859 -10.397888 -3.949489 0.000000 0.000000 0.000000 18.348823 -27.163523 35.397602 50.529231 55.634648 29.901748 -15.073696 33.830758 -2.803723 0.000000 0.000000 0.000000 
-0.612884 0.985648 -0.270738 -179.592017 31.490979 174.330757 -3.060358 -6.107778 10.841058 -1.044254 -3.307218 -1.292539 17.692743 -5.174889 22.491770 0.000000 0.000000 0.000000 -2.979284 -9.378597 -8.826814 -24.273460 -21.915261 36.761324 34.476890 7.116491 13.902733 0.000000 0.000000 0.000000 -0.797035 -4.299362 18.893400 -8.789097 -3.169876 -29.563160 5.623633 14.364042 37.937863 9.556602 3.265206 -36.935762 0.000000 0.000000 0.000000 5.933872 -13.730913 -66.709512 -35.757353 47.999865 -21.698781 -44.329270 -11.449264 -3.778317 0.000000 0.000000 0.000000 17.170880 -26.683481 36.454882 53.454904 56.904307 33.803847 -17.429435 35.181249 -3.507089 0.000000 0.000000 0.000000 
-0.601792 0.983953 -0.287314 -179.076325 28.953100 173.826966 -3.373472 -8.384103 14.043567 -1.410013 -3.742742 -3.409569 20.250178 -5.507886 22.389740 0.000000 0.000000 0.000000 -1.180673 -9.058391 -10.767238 -18.453976 -19.061096 30.361345 32.584590 3.119810 11.925203 0.000000 0.000000 0.000000 -1.338624 -5.110726 20.285598 -8.382426 -3.237319 -30.012299 5.701824 13.547272 38.013724 9.695862 3.317367 -37.769288 0.000000 0.000000 0.000000 7.407384 -14.625707 -69.115821 -36.046682 49.823793 -22.836494 -46.449671 -11.333137 -4.288235 0.000000 0.000000 0.000000 16.245124 -26.802482 38.897880 55.271969 60.451097 38.564557 -19.710206 34.607204 -4.283308 0.000000 0.000000 0.000000 
-0.589024 0.980201 -0.304712 -179.406919 27.737241 173.597607 -4.405794 -9.587944 16.068561 -0.948891 -3.587031 -3.909349 20.177720 -5.352875 22.284296 0.000000 0.000000 0.000000 0.535418 -8.555947 -12.433215 -13.121885 -13.534564 22.174465 30.294786 -1.219869 9.898465 0.000000 0.000000 0.000000 -1.490593 -4.930510 19.978162 -8.697065 -3.365676 -29.078854 5.749322 13.535676 37.590253 9.024979 2.732769 -38.014813 0.000000 0.000000 0.000000 8.657312 -14.786584 -72.176133 -35.928284 53.095868 -24.544183 -48.294688 -10.839548 -4.910584 0.000000 0.000000 0.000000 14.943548 -26.372893 41.959710 56.444795 63.188848 42.429293 -22.727800 33.071857 -5.150229 0.000000 0.000000 0.000000 
-0.573995 0.975045 -0.324072 -179.690273 25.206057 173.446849 -5.269795 -11.093528 17.932435 -0.543232 -3.677823 -4.824359 20.936694 -6.175347 21.271187 0.000000 0.000000 0.000000 1.941555 -7.995373 -12.996777 -8.725057 -8.380355 13.812164 27.384241 -6.106825 10.633173 0.000000 0.000000 0.000000 -0.760563 -5.115862 20.058104 -9.158687 -3.863051 -28.427678 4.884730 13.674235 35.845345 10.872847 1.975038 -36.863052 0.000000 0.000000 0.000000 10.949346 -15.836785 -75.071717 -36.251874 56.807055 -27.608761 -48.792663 -8.412352 -6.697621 0.000000 0.000000 0.000000 13.617041 -26.283413 46.072187 57.302926 67.229804 47.290451 -23.742753 31.371366 -5.615729 0.000000 0.000000 0.000000 
-0.556120 0.968492 -0.346269 179.392212 23.139101 172.329326 -6.419906 -13.060988 20.484226 -0.400980 -3.423562 -4.538643 19.780224 -5.849205 20.573278 0.000000 0.000000 0.000000 2.223250 -7.292540 -11.774044 -7.244399 -5.586156 8.901748 25.743493 -9.465355 10.539625 0.000000 0.000000 0.000000 -0.512291 -5.052060 19.841460 -10.679248 -5.364088 -28.195402 6.277692 14.055091 36.867315 9.555878 0.344617 -36.865520 0.000000 0.000000 0.000000 14.083823 -16.090981 -82.813485 -30.611647 64.690332 -27.905928 -49.360532 -4.068545 -9.137329 0.000000 0.000000 0.000000 11.290261 -27.186447 51.644810 56.365762 73.456608 54.242904 -26.753701 27.346973 -5.766915 0.000000 0.000000 0.000000 
-0.535283 0.961922 -0.371894 178.696448 19.879710 171.401548 -7.358797 -15.318624 22.819272 -1.476127 -3.581436 -3.598287 21.180270 -6.062027 21.066070 0.000000 0.000000 0.000000 1.637159 -7.293375 -10.124485 -7.400227 -5.859815 8.825117 22.282103 -12.033610 11.977289 0.000000 0.000000 0.000000 0.541674 -4.793238 19.070490 -12.024142 -6.902849 -27.626718 6.625866 14.093700 37.101490 9.624603 -1.476518 -36.228645 0.000000 0.000000 0.000000 17.122243 -16.175408 -94.344343 -4.264308 72.533898 -10.046352 -45.908159 2.322564 -11.371204 0.000000 0.000000 0.000000 9.387012 -27.990170 61.999799 43.775812 82.298220 50.898378 -29.875988 20.216726 -5.483389 0.000000 0.000000 0.000000 
-0.513026 0.957064 -0.398414 178.634417 17.401118 170.292496 -7.350878 -17.092019 24.154656 -3.556366 -3.693887 0.670971 23.687797 -6.156217 19.745699 0.000000 0.000000 0.000000 1.517810 -7.085540 -8.631354 -8.049645 -9.283712 12.816028 27.728015 -12.634851 7.221610 0.000000 0.000000 0.000000 0.847900 -4.614488 18.617746 -12.138220 -7.157878 -26.624719 7.086342 13.620889 36.925518 8.649631 -4.641766 -34.699765 0.000000 0.000000 0.000000 19.698951 -14.268761 -106.747433 42.372240 72.701771 27.227203 -41.306475 9.341564 -12.976600 0.000000 0.000000 0.000000 7.890853 -29.658086 68.832674 0.740396 86.120026 14.158282 -31.364709 16.296565 -4.934692 0.000000 0.000000 0.000000 
-0.491466 0.957845 -0.422821 178.886427 16.679582 170.571504 -4.544265 -16.121517 21.474350 -6.698336 -4.979337 6.918234 25.904324 -6.421527 21.929404 0.000000 0.000000 0.000000 1.982751 -6.307295 -7.203805 -7.419359 -10.463536 13.295825 29.518655 -13.305810 4.456704 0.000000 0.000000 0.000000 2.041680 -3.853113 17.090991 -11.630047 -6.608548 -26.149979 5.972018 12.211055 37.014094 8.950570 -5.332571 -33.958311 0.000000 0.000000 0.000000 19.763891 -12.967078 -109.430575 61.347341 70.873291 41.617231 -38.217011 6.315503 -11.456444 0.000000 0.000000 0.000000 8.945930 -30.333742 69.335446 -29.462425 86.213683 -15.140056 -29.690957 15.114132 -4.623392 0.000000 0.000000 0.000000 
-0.471722 0.960638 -0.443137 179.061937 17.059259 171.075402 -1.784196 -12.727883 16.141576 -10.247990 -8.066755 16.145278 24.574113 -5.359051 26.510721 0.000000 0.000000 0.000000 2.964985 -5.132418 -5.659521 -7.497070 -10.304113 12.932898 29.494287 -14.149111 3.775232 0.000000 0.000000 0.000000 2.154347 -3.315393 16.085552 -11.165467 -6.074724 -26.176798 6.417493 11.346508 36.464461 7.300212 -6.278862 -33.733437 0.000000 0.000000 0.000000 19.451319 -12.142019 -110.914777 70.738999 67.968331 47.969517 -35.544084 6.143807 -10.662260 0.000000 0.000000 0.000000 7.999728 -29.666344 69.827772 -25.966414 85.406469 -10.714484 -30.233589 14.055014 -4.297067 0.000000 0.000000 0.000000 
-0.454675 0.963955 -0.459188 179.316378 17.350097 171.363696 1.806757 -8.918675 8.732581 -18.504647 -14.631648 29.172989 29.191963 -3.937556 32.890132 0.000000 0.000000 0.000000 3.287337 -4.732777 -4.795608 -6.937605 -12.407487 14.389527 30.647185 -13.158689 2.866100 0.000000 0.000000 0.000000 2.553738 -3.437593 16.162242 -9.632343 -4.666987 -26.591842 5.534836 11.611546 35.867363 7.272784 -7.781004 -32.137760 0.000000 0.000000 0.000000 19.831940 -11.116417 -111.112420 75.251295 66.486948 49.857690 -33.618710 5.849219 -10.127112 0.000000 0.000000 0.000000 8.075147 -30.723745 65.737404 10.188080 84.322992 23.887797 -29.761214 15.983075 -4.113027 0.000000 0.000000 0.000000 
-0.440888 0.965453 -0.471370 179.386788 17.769628 171.511063 3.713383 -5.799154 1.134126 -30.809473 -20.647413 40.833966 37.821830 -4.146758 42.093100 0.000000 0.000000 0.000000 3.985286 -4.063754 -3.622892 -6.277004 -11.837493 13.239412 30.676644 -13.774628 3.833448 0.000000 0.000000 0.000000 2.939381 -3.949799 16.887115 -10.026662 -5.020241 -27.263078 6.864987 12.821704 35.998950 8.179615 -6.598279 -33.079692 0.000000 0.000000 0.000000 20.126728 -9.452130 -115.719531 77.709536 60.012529 48.311651 -34.718315 8.761509 -11.342167 0.000000 0.000000 0.000000 7.167066 -31.196266 65.936790 3.240532 84.388382 19.087869 -31.481070 14.640473 -3.636603 0.000000 0.000000 0.000000 
-0.430041 0.964935 -0.481048 179.635261 19.174799 171.484151 6.027600 -5.465651 -4.066066 -42.124554 -22.855795 46.846910 45.077479 -4.060509 49.598872 0.000000 0.000000 0.000000 4.818092 -3.406281 -2.774351 -7.035160 -11.197448 13.213909 29.077892 -13.800147 4.219096 0.000000 0.000000 0.000000 2.869116 -4.643766 18.042641 -10.299634 -5.225162 -27.660869 8.796660 14.707546 36.538413 7.426310 -6.401193 -33.627747 0.000000 0.000000 0.000000 19.475515 -8.731299 -117.587857 76.813723 58.323570 47.655504 -32.933652 10.418517 -11.085379 0.000000 0.000000 0.000000 7.656708 -31.367254 65.197946 -9.956691 82.349774 5.998016 -33.138832 16.723846 -3.735957 0.000000 0.000000 0.000000 
-0.421644 0.966333 -0.489700 179.573039 20.898961 172.206372 7.255164 -5.446576 -8.937323 -46.152174 -23.417687 48.942023 44.607882 -3.474212 54.497489 0.000000 0.000000 0.000000 4.272598 -3.632811 -2.920305 -7.124409 -10.636046 13.062292 31.175660 -12.357017 3.376239 0.000000 0.000000 0.000000 2.654333 -5.336698 19.390958 -10.894906 -6.006136 -29.318032 10.858053 15.528577 37.499310 7.045458 -5.440240 -34.320024 0.000000 0.000000 0.000000 16.984145 -8.926481 -115.987658 69.079803 58.060447 44.181750 -31.989780 8.675738 -9.458069 0.000000 0.000000 0.000000 9.772022 -31.147653 62.211924 -5.512398 79.323523 6.943458 -32.244489 19.438388 -4.055609 0.000000 0.000000 0.000000 
-0.415407 0.967371 -0.498349 -179.994368 23.699357 173.100999 7.916658 -5.729761 -12.482331 -46.624346 -23.156494 48.938694 42.659302 -1.734924 56.911418 0.000000 0.000000 0.000000 5.074639 -2.869200 -1.822192 -6.773675 -8.824804 11.331004 29.747837 -12.052778 4.585079 0.000000 0.000000 0.000000 3.300791 -5.198549 19.026770 -10.903817 -5.531041 -28.395006 10.622757 15.730891 36.833269 6.612349 -4.761219 -33.550577 0.000000 0.000000 0.000000 12.553088 -11.840089 -101.424493 44.100113 66.562020 30.359006 -32.506434 4.696717 -7.735347 0.000000 0.000000 0.000000 13.125210 -29.066421 55.648521 8.197954 74.560051 13.278344 -28.458948 23.401760 -4.457613 0.000000 0.000000 0.000000 
